<?xml version="1.0" encoding="utf-8"?>
<!-- Generator: Adobe Illustrator 19.1.0, SVG Export Plug-In . SVG Version: 6.00 Build 0)  -->
<svg version="1.1" id="Layer_1" xmlns="http://www.w3.org/2000/svg" xmlns:xlink="http://www.w3.org/1999/xlink" x="0px" y="0px"
	 viewBox="0 0 72.5 50.7" style="enable-background:new 0 0 72.5 50.7;" xml:space="preserve">
<g>
	<path d="M20.7,17.5c-0.8-0.3-1.6-0.6-2.4-0.9c-1.6-0.6-2.3-1.9-2.4-3.5c-0.2-1.6,0.6-2.7,1.9-3.5C18.4,9.4,19,9,19.7,8.9
		c1.3-0.3,2.7-0.6,4-0.8c0.9-0.2,1.2,0.2,0.9,1.1c-0.2,0.7-0.4,1.4-0.6,2.2c4.3,0.1,8.3,0.2,12.4,0.4c2.9,0.1,5.8,0.2,8.7,0.3
		c0.4,0,1,0.3,1.2-0.4c0.4-1.5,0.9-3,1.3-4.4c-0.5-0.2-1-0.4-1.4-0.7c-0.8-0.4-1.6-0.6-2.5-0.3c-0.6,0.2-1.3-0.2-2-0.3
		c0.4-1.2,1.1-1.3,1.9-1.3c1.2,0,2.4,0.1,3.5,0.1c1.6-0.1,3.2-0.2,4.8-0.3c0.3,0,0.9,0.2,1,0.4c0.1,0.3-0.1,0.7-0.3,1.1
		c-0.1,0.2-0.4,0.4-0.7,0.5c-1,0.4-1.9,0.7-3.1,1.2c-0.4,1.5-1,3.3-1.5,5.1c-0.1,0.2,0,0.4,0,0.6c1.1,2,2.3,4.1,3.4,6.1
		c8.8-4,16.6,0.6,19.4,6.4c3.1,6.4,1.1,14.2-4.7,18.1c-3.1,2.1-6.6,2.9-10.3,2.3c-5.1-0.8-8.6-3.7-10.9-8.2
		c-0.2,0.1-0.4,0.1-0.5,0.2c-1.5,0.4-3.1,1.1-4.7,0.6c-0.2,0-0.5,0.1-0.6,0.3c-0.4,0.5-0.7,1-1,1.5c0.1,0,0.2,0,0.3,0
		c0.1,0.4,0.4,0.9,0.3,1.1c-0.1,0.3-0.7,0.4-1.1,0.4c-0.6,0-1.2,0-1.8-0.2c-0.3-0.1-0.6-0.4-0.7-0.7c0-0.1,0.3-0.4,0.6-0.6
		c0.3-0.2,0.6-0.3,0.8-0.6c0.5-0.7,1-1.4,1.4-2.2c-1.8-2.5-1.9-3.5-0.7-6.2c-0.1-0.1-0.3-0.3-0.4-0.5c-3.9-4.2-7.7-8.4-11.6-12.5
		c-1.1-1.2-1.9-2.7-4-2.5c0.3-0.4,0.5-0.6,0.6-0.9c0.6-1.9,1.2-3.8,1.8-5.8c-1.6,0.3-3.3,0.5-4.7,1.4c-1.1,0.7-1.4,1.7-1,2.9
		c0.3,0.9,1,1.5,1.8,1.9c0.9,0.3,1.8,0.5,2.7,0.8c0.2,0.1,0.4,0.4,0.5,0.7c-0.2,0.1-0.4,0.4-0.7,0.4C21.4,17.7,21.1,17.6,20.7,17.5
		L20.7,17.5z M56.8,29.8c0.2,0.3,0.6,0.4,0.9,0.5c0.9,0.2,1.4,0.8,1.5,1.7c0,0.9-0.5,1.6-1.3,1.8c-3.7,1.1-7.3,2.2-11,3.3
		c-0.3,0.1-0.6,0.2-1,0.3c2.5,5.7,9.9,9.3,16.8,6.1c6.6-3,9.3-11,5.9-17.4c-3.5-6.6-11.5-8.4-17-5.3C53.4,23.8,55.1,26.8,56.8,29.8z
		 M41.1,29.5c1.5-5.2,3-10.6,4.6-16.3c-1.4,0-2.7,0-3.9,0c-5.8-0.2-11.7-0.4-17.5-0.6c-0.3,0-0.8,0.2-0.9,0.4
		c-0.1,0.6-0.9,1.3-0.2,2c4.8,5.2,9.7,10.4,14.4,15.5C38.8,30.1,39.9,29.9,41.1,29.5z M56.4,30.3c-1.8-3.1-3.6-6.1-5.4-9.2
		c-3.3,2.1-5.3,4.9-6.1,8.8C48.8,30,52.5,30.2,56.4,30.3z M46.9,14.1c-1.5,5.3-3,10.4-4.5,15.5c0.1,0.1,0.1,0.1,0.2,0.2
		c0.3-0.2,0.7-0.3,0.8-0.5c0.9-4.2,3.2-7.4,6.8-9.7C49.1,17.9,48.1,16.1,46.9,14.1z M44.8,33.3c3.6-0.3,7.1-0.7,10.7-1
		c0.2-0.5,0.3-1,0.5-1.6c-3.7-0.1-7.4-0.3-11.2-0.4C44.8,31.3,44.8,32.3,44.8,33.3z M55.4,33.1c-3.4,0.4-6.8,0.9-10.2,1.4
		c-0.1,0-0.1,0.1-0.3,0.1c0.2,0.7,0.4,1.5,0.7,2.3c3.6-1.1,7.2-2.2,10.7-3.3c0-0.1,0-0.2,0-0.3C56.1,33.3,55.7,33.1,55.4,33.1z
		 M43.2,35.7c0-0.1-0.1-0.3-0.1-0.4c-0.6,0-1.4-0.2-1.8,0.1c-0.4,0.3-0.3,1.2-0.4,1.8c0.1,0.1,0.3,0.1,0.4,0.2
		C42,36.8,42.6,36.2,43.2,35.7z M37.7,32.8c-0.1,0.9-0.2,1.5-0.3,2.3c0.7-0.3,1.1-0.5,1.8-0.8C38.7,33.8,38.3,33.4,37.7,32.8z
		 M40.6,31.3c-0.6,0.1-1,0.2-1.7,0.3c0.4,0.5,0.8,0.9,1.2,1.4C40.3,32.4,40.4,32,40.6,31.3z M41.6,33.6c0.6,0,1-0.1,1.6-0.1
		c-0.3-0.5-0.5-0.9-0.9-1.5C42.1,32.6,41.9,33,41.6,33.6z"/>
	<path d="M20.7,17.5c0.3,0.1,0.5,0.3,0.8,0.4c-0.1,0.4-0.2,0.8-0.3,1.2c7.8,4,9.8,12.5,6.9,18.9c-3.1,6.7-10.5,9.9-17.5,7.6
		c-6.9-2.3-11-9.4-9.5-16.5c0.7-3.5,2.5-6.3,5.4-8.5c4.2-3.1,8.7-3.6,13.6-2C20.3,18.2,20.5,17.9,20.7,17.5
		C20.7,17.5,20.7,17.5,20.7,17.5z M18.7,26.2c-0.6,1.4-1.3,2.7-2,4c-0.1,0.2-0.1,0.6,0,0.9c0.4,0.8,0.4,1.6-0.2,2.2
		c-0.6,0.6-1.4,0.7-2.1,0.4c-0.7-0.4-1.1-1-0.9-1.9c0.2-0.9,0.8-1.4,1.7-1.5c0.3,0,0.7-0.2,0.8-0.5c1.3-3.1,2.6-6.3,3.9-9.4
		c-4.5-2.3-12.2-1-15.8,5.4c-3.6,6.3-1.1,14.3,5.3,17.6c6.6,3.3,14.4,0.5,17.4-6.2c3-6.8-0.6-14-6-16.4C20,22.6,19.4,24.4,18.7,26.2
		z"/>
	<path d="M37.7,32.8c-0.1,0.9-0.2,1.5-0.3,2.3"/>
	<path d="M38.9,31.7c0.4,0.5,0.8,0.9,1.2,1.4"/>
	<path d="M42.4,31.9c-0.3,0.7-0.5,1.1-0.7,1.6"/>
</g>
</svg>
